# xmcd
#
# Track frame offsets: 
#        150
#        11244
#        21732
#        34677
#        49192
#        58634
#        71406
#        83323
#        95092
#        107026
#        116396
#        126875
#
# Disc length: 1842 seconds
#
# Revision: 0
# Processed by: cddbd v1.5.1PL2 Copyright (c) Steve Scherf et al.
# Submitted via: ExactAudioCopy v0.95a5
#
DISCID=9d07300c
DTITLE=Jimmy Reed - Found Love
DYEAR=2000
DGENRE=Blues
TTITLE0=Baby What You Want Me To Do
TTITLE1=Found Love
TTITLE2=Meet Me
TTITLE3=I Was So Wrong
TTITLE4=Going By The River (Part 2)
TTITLE5=Big Boss Man
TTITLE6=Hush Hush
TTITLE7=Where Can You Be
TTITLE8=I'm Nervous
TTITLE9=Going By The River (Part 1)
TTITLE10=I Ain't Got You
TTITLE11=Come Love
EXTD=
EXTT0=
EXTT1=
EXTT2=
EXTT3=
EXTT4=
EXTT5=
EXTT6=
EXTT7=
EXTT8=
EXTT9=
EXTT10=
EXTT11=
PLAYORDER=
